<svg xmlns="http://www.w3.org/2000/svg" viewBox="0 0 512 512">
  <defs>
    <radialGradient id="bg" cx="50%" cy="35%" r="70%">
      <stop offset="0%" stop-color="#171f30"/>
      <stop offset="100%" stop-color="#05070c"/>
    </radialGradient>
    <linearGradient id="accent" x1="0" y1="0" x2="1" y2="1">
      <stop offset="0%" stop-color="#3ddc84"/>
      <stop offset="100%" stop-color="#ffd54a"/>
    </linearGradient>
    <filter id="glow" x="-30%" y="-30%" width="160%" height="160%">
      <feGaussianBlur stdDeviation="10" result="blur"/>
      <feMerge>
        <feMergeNode in="blur"/>
        <feMergeNode in="SourceGraphic"/>
      </feMerge>
    </filter>
  </defs>
  <rect width="512" height="512" rx="128" fill="url(#bg)"/>
  <circle cx="256" cy="256" r="176" fill="none" stroke="#3ddc84" stroke-opacity="0.16" stroke-width="24"/>
  <g transform="translate(128 110)">
    <rect x="30" y="30" width="196" height="272" rx="26" fill="#0a0e17" stroke="url(#accent)" stroke-width="16"/>
    <path d="M128 86c42 0 76 34 76 76s-34 76-76 76-76-34-76-76 34-76 76-76Z" fill="url(#accent)" filter="url(#glow)"/>
    <path d="M123 116h10l9 20 22 2-16 15 5 22-20-11-20 11 5-22-16-15 22-2z" fill="#05070c"/>
    <path d="M88 230h80" stroke="#e9eefb" stroke-opacity="0.85" stroke-width="16" stroke-linecap="round"/>
    <path d="M88 262h112" stroke="#e9eefb" stroke-opacity="0.55" stroke-width="12" stroke-linecap="round"/>
  </g>
  <text x="256" y="446" text-anchor="middle" font-family="Orbitron, Arial, sans-serif" font-size="68" font-weight="900" letter-spacing="8" fill="#e9eefb">ARENA</text>
</svg>
