<svg xmlns="http://www.w3.org/2000/svg" viewBox="0 0 512 512">
  <defs>
    <linearGradient id="bg" x1="0" y1="0" x2="1" y2="1">
      <stop offset="0%" stop-color="#05070c"/>
      <stop offset="100%" stop-color="#121826"/>
    </linearGradient>
    <linearGradient id="accent" x1="0" y1="0" x2="1" y2="1">
      <stop offset="0%" stop-color="#3ddc84"/>
      <stop offset="100%" stop-color="#2f8fff"/>
    </linearGradient>
    <filter id="glow" x="-30%" y="-30%" width="160%" height="160%">
      <feGaussianBlur stdDeviation="12" result="blur"/>
      <feMerge>
        <feMergeNode in="blur"/>
        <feMergeNode in="SourceGraphic"/>
      </feMerge>
    </filter>
  </defs>
  <rect width="512" height="512" rx="112" fill="url(#bg)"/>
  <circle cx="256" cy="256" r="168" fill="none" stroke="#3ddc84" stroke-opacity="0.22" stroke-width="20"/>
  <circle cx="256" cy="256" r="134" fill="none" stroke="#2f8fff" stroke-opacity="0.18" stroke-width="14"/>
  <g transform="translate(96 92)">
    <rect x="68" y="24" width="196" height="280" rx="24" fill="#0a0e17" stroke="url(#accent)" stroke-width="14" transform="rotate(-9 166 164)"/>
    <rect x="92" y="52" width="196" height="280" rx="24" fill="#171f30" stroke="#e9eefb" stroke-opacity="0.2" stroke-width="8" transform="rotate(7 190 192)"/>
    <path d="M160 108h98c18 0 32 14 32 32v54c0 18-14 32-32 32h-36v40h-26v-40h-36c-18 0-32-14-32-32v-54c0-18 14-32 32-32Z" fill="url(#accent)" filter="url(#glow)"/>
    <path d="M186 136h46v23h24v44h-24v23h-46v-23h-24v-44h24z" fill="#05070c"/>
  </g>
  <text x="256" y="446" text-anchor="middle" font-family="Orbitron, Arial, sans-serif" font-size="76" font-weight="900" letter-spacing="10" fill="#e9eefb">TCG</text>
</svg>
